# xmcd CD database file
#
# Track frame offsets:
#	150
#	49066
#	77163
#	99238
#	129021
#	176122
#	198448
#	230678
#
# Disc length: 3902 seconds
#
# Revision: 0
# Processed by: cddbd v1.5PL3 Copyright (c) Steve Scherf et al.
# Submitted via: CDex 1.50
#
DISCID=600f3c08
DTITLE=Pat Metheny Trio - Italy, 07/17/99 [CD1]
DYEAR=2004
DGENRE=Jazz
TTITLE0=The Turnaround (Ornette Coleman)
TTITLE1=James (Pat Metheny - Lyle Mays)
TTITLE2=The Good Life (Ornette Coleman)
TTITLE3=Unity Village (Pat Metheny)
TTITLE4=All The Things You Are (Jerome Kern - Oscar Hammerstein)
TTITLE5=Into The Dream (Pat Metheny)
TTITLE6=So May It Secretly Begin (Pat Metheny)
TTITLE7=Question And Answer (Pat Metheny)
EXTD=YEAR: 2004
EXTT0=
EXTT1=
EXTT2=
EXTT3=
EXTT4=
EXTT5=
EXTT6=
EXTT7=
PLAYORDER=
